<?xml version="1.0" encoding="UTF-8"?>
<svg width="800px" height="800px" fill="none" viewBox="0 0 24 24" xmlns="http://www.w3.org/2000/svg">
<path d="m8 9.0001h-1.8c-1.1201 0-1.6802 0-2.108 0.21799-0.37633 0.19174-0.68229 0.4977-0.87403 0.87405-0.21799 0.4278-0.21799 0.9879-0.21799 2.108v5.6c0 1.1201 0 1.6801 0.21799 2.1079 0.19174 0.3764 0.4977 0.6823 0.87403 0.8741 0.42782 0.218 0.98787 0.218 2.108 0.218h11.587c1.1201 0 1.6801 0 2.108-0.218 0.3763-0.1918 0.6822-0.4977 0.874-0.8741 0.218-0.4278 0.218-0.9878 0.218-2.1079v-5.8m-14.987 3h0.01m3.99-1e-4h0.01m1.5089-2.1054 1.3148-0.2599c0.7095-0.1402 1.0642-0.2103 1.395-0.3394 0.2936-0.1146 0.5726-0.2635 0.8313-0.4437 0.2914-0.2029 0.547-0.4586 1.0584-0.97l5.1484-5.1484c0.6873-0.68725 0.6873-1.8015 0-2.4888-0.6872-0.68725-1.8015-0.68725-2.4887 1e-5l-5.2365 5.2364c-0.4791 0.47916-0.7187 0.71875-0.9122 0.99033-0.1718 0.24111-0.3163 0.50053-0.4308 0.77349-0.129 0.3075-0.2065 0.6374-0.3616 1.297l-0.3181 1.3529z" stroke="#000" stroke-linecap="round" stroke-linejoin="round" stroke-width="2"/>
</svg>
